<?xml version="1.0" standalone="no"?>
<!DOCTYPE svg PUBLIC "-//W3C//DTD SVG 20010904//EN"
 "http://www.w3.org/TR/2001/REC-SVG-20010904/DTD/svg10.dtd">
<svg version="1.0" xmlns="http://www.w3.org/2000/svg"
 width="700.000000pt" height="700.000000pt" viewBox="0 0 700.000000 700.000000"
 preserveAspectRatio="xMidYMid meet">
<metadata>
Created by potrace 1.14, written by Peter Selinger 2001-2017
</metadata>
<g transform="translate(0.000000,700.000000) scale(0.100000,-0.100000)"
fill="#000000" stroke="none">
<path d="M3277 6994 c-1 -1 -41 -5 -88 -8 -47 -4 -94 -8 -105 -10 -10 -2 -46
-7 -79 -11 -32 -4 -68 -9 -80 -11 -11 -2 -45 -8 -75 -14 -83 -15 -87 -16 -201
-44 -127 -32 -315 -93 -453 -147 -157 -63 -465 -218 -507 -255 -8 -8 -19 -14
-23 -14 -12 0 -220 -144 -316 -219 -486 -377 -872 -890 -1100 -1462 -66 -165
-142 -408 -165 -530 -3 -13 -12 -58 -20 -99 -8 -41 -17 -89 -19 -105 -3 -17
-7 -46 -11 -66 -6 -40 -10 -74 -22 -199 -15 -162 -8 -591 12 -711 2 -13 6 -46
9 -74 9 -78 22 -152 51 -285 70 -326 242 -754 415 -1033 30 -48 60 -95 65
-105 38 -68 237 -328 314 -412 107 -116 190 -195 219 -207 135 -57 283 44 283
194 0 62 -24 109 -95 179 -247 245 -492 614 -632 951 -68 163 -137 373 -159
486 -2 10 -6 26 -9 35 -3 9 -7 28 -10 42 -4 25 -15 86 -22 125 -29 155 -39
286 -39 520 0 298 24 495 91 759 83 329 233 665 425 951 174 259 343 447 606
673 55 47 232 173 331 234 362 228 805 388 1207 438 50 6 104 13 120 15 17 3
86 7 155 11 152 7 190 16 234 54 119 105 77 309 -72 350 -31 8 -226 11 -235 4z"/>
<path d="M4259 6880 c-64 -19 -44 5 -512 -614 -12 -16 -60 -79 -107 -140 -47
-62 -141 -186 -209 -277 -69 -90 -195 -256 -281 -369 -166 -218 -326 -429
-554 -730 -77 -102 -144 -189 -148 -195 -18 -22 -225 -295 -398 -525 -102
-135 -187 -247 -191 -250 -22 -20 -133 -177 -145 -205 -17 -41 -18 -86 -3
-140 14 -51 85 -119 137 -132 21 -5 477 -9 1057 -8 l1020 0 45 25 c24 14 58
45 75 68 26 38 30 52 30 112 0 60 -4 74 -30 112 -17 23 -51 54 -75 68 l-45 25
-790 1 c-434 1 -796 2 -803 3 -7 0 9 29 36 64 60 77 207 270 336 442 54 72
102 132 106 135 5 3 280 4 612 4 528 -1 614 -4 693 -19 186 -36 339 -110 449
-218 168 -166 236 -359 231 -650 -8 -354 -173 -603 -492 -740 -64 -27 -220
-72 -283 -81 -19 -3 -57 -8 -85 -12 -27 -4 -237 -8 -465 -8 -377 -1 -418 -3
-447 -19 -42 -22 -66 -50 -203 -227 -61 -80 -123 -160 -138 -179 -15 -19 -52
-67 -82 -106 -30 -40 -128 -166 -216 -281 -89 -115 -282 -364 -428 -554 -146
-190 -272 -352 -279 -360 -105 -127 -125 -206 -77 -300 32 -63 111 -110 184
-110 17 0 54 11 82 24 41 19 64 41 115 107 34 46 65 86 68 89 4 3 49 61 100
130 52 69 97 127 101 130 3 3 28 34 55 70 27 36 125 164 219 285 93 121 232
301 308 400 76 99 144 187 151 195 7 8 50 65 97 125 46 61 95 124 108 140 l25
30 346 1 c336 0 400 3 526 25 123 21 328 81 392 114 16 8 31 15 35 15 13 0
177 99 230 138 246 184 410 469 454 792 12 92 11 293 -2 392 -18 128 -20 140
-55 250 -146 460 -543 760 -1080 814 -40 4 -266 8 -501 8 -236 1 -428 3 -428
6 0 3 43 61 95 130 52 69 160 211 239 315 79 105 188 249 243 320 54 72 233
308 398 525 164 217 302 397 305 400 3 3 27 34 52 70 66 94 76 136 54 214 -32
108 -148 170 -257 136z"/>
<path d="M4986 6605 c-85 -30 -137 -94 -141 -175 -6 -104 37 -167 155 -229 77
-40 270 -165 355 -229 565 -430 954 -1010 1134 -1692 17 -63 33 -133 37 -155
3 -22 7 -42 9 -45 2 -3 6 -26 10 -50 3 -25 10 -73 16 -107 32 -208 34 -590 3
-823 -42 -326 -152 -688 -301 -985 -36 -71 -152 -276 -162 -285 -4 -3 -32 -43
-63 -90 -124 -186 -311 -395 -497 -559 -262 -231 -533 -397 -906 -557 -98 -41
-382 -125 -507 -149 -11 -2 -27 -6 -36 -9 -27 -8 -223 -35 -309 -43 -159 -14
-655 -6 -683 12 -3 2 -26 6 -50 9 -38 4 -131 21 -225 40 -35 7 -178 45 -240
64 -70 21 -122 19 -173 -7 -128 -66 -151 -237 -45 -336 24 -22 164 -74 239
-89 10 -2 57 -13 104 -25 116 -27 210 -45 300 -56 25 -3 56 -7 68 -10 138 -26
680 -27 844 0 13 2 46 7 73 10 71 10 87 13 115 18 14 3 43 8 65 12 115 21 314
74 455 122 557 188 1090 542 1480 982 36 41 70 79 75 85 62 66 240 317 318
448 181 301 348 718 413 1033 13 65 54 298 59 340 30 253 27 660 -6 890 -5 39
-12 88 -15 110 -3 22 -10 56 -14 75 -5 19 -12 51 -15 70 -11 66 -64 265 -95
360 -208 629 -579 1179 -1085 1605 -96 81 -346 265 -360 265 -2 0 -23 13 -47
29 -24 16 -85 52 -136 80 -101 56 -154 67 -216 46z"/>
</g>
</svg>
